# xmcd
#
# Track frame offsets: 
#        6194
#        21737
#        35062
#        51123
#        65931
#        77405
#        92925
#        114689
#        150759
#        164081
#        182420
#        215945
#        236403
#        264914
#
# Disc length: 3790 seconds
#
# Revision: 2
# Processed by: cddbd v1.5.2PL0 Copyright (c) Steve Scherf et al.
# Submitted via: ExactAudioCopy v1.1
#
DISCID=cd0e7c0e
DTITLE=Renft - Abschied und Weitergehen
DYEAR=2007
DGENRE=Rock
TTITLE0=Muss (2003)
TTITLE1=Irgendwo dazwischen (2003)
TTITLE2=Liebe und Leid (2004)
TTITLE3=Stuntman (2003)
TTITLE4=Willst du deinen Mann verlassen (2004)
TTITLE5=Tropfen auf den heiﬂen Stein (2007)
TTITLE6=Nie auf ein Schlachtfeld (Eve of Destruction) (2002)
TTITLE7=Fuﬂ aus Stolz (Foot of Pride) [Live at Prenzl's, Berlin 2001]
TTITLE8=Annette [Live at Prenzl's, Berlin 2001]
TTITLE9=Cool sein [Live at Prenzl's, Berlin 2001]
TTITLE10=Aiko Biaye [Live at Prenzl's, Berlin 2001]
TTITLE11=Kinder im Krieg [Live at Blues Garage, Hannover 2005]
TTITLE12=RENFT-Medley 2005 (30 Jahre nach dem Verbot) (2007)
TTITLE13=September [Instrumental Demo]
EXTD=
EXTT0=
EXTT1=
EXTT2=
EXTT3=
EXTT4=
EXTT5=
EXTT6=
EXTT7=
EXTT8=
EXTT9=
EXTT10=
EXTT11=
EXTT12=
EXTT13=
PLAYORDER=
